<?xml version="1.0" encoding="UTF-8"?><svg id="Layer_2" xmlns="http://www.w3.org/2000/svg" xmlns:xlink="http://www.w3.org/1999/xlink" viewBox="0 0 144 216"><defs><style>.cls-1,.cls-2{fill:none;}.cls-3{clip-path:url(#clippath);}.cls-4{fill:#fde3cc;}.cls-5{fill:#3b55a3;}.cls-6{clip-path:url(#clippath-1);}.cls-2{stroke:#3b55a3;stroke-miterlimit:10;stroke-width:2px;}</style><clipPath id="clippath"><rect class="cls-1" width="144" height="216"/></clipPath><clipPath id="clippath-1"><rect class="cls-1" width="144" height="216"/></clipPath></defs><g id="Layer_1-2"><g class="cls-3"><rect class="cls-4" width="144" height="216"/><g class="cls-6"><path class="cls-5" d="m75.95,84.09c-.7-.48-1.4-.95-2.16-1.47.11,1.35.22,2.66.33,3.97-.12.01-.23.03-.35.04-.65-1.91-.55-3.97-.99-5.97-4.35,1.76-9.39,1.19-13.2-1.65-3,9.64-15.8,9.34-23.78,12.57,8.16,8.38,17.87,15.01,25.53,23.83,10.17-8.65,21.74-15.49,31.55-24.56-3.57-1.32-7.87-1.51-10.83-3.51-1.82-1.18-4.32-1.77-6-3.17,3.43,1.19,11.85,7.04,10.66-.66,1.5.11,3.03,1.28,3.93-.34.04.04.08.07.12.11-.04,1.95-2,1.36-3.32,1.29-.43,1.41-.47,3.03-2.25,3.67,1.47.91,9.71,1.17,8.08,3.43-3.14,2.64-6.01,5.35-9.51,7.55,7.91,8.61,17.9,14.63,25.49,23.46,1.41,2.33-11.78,4.09-13.98,5.23,2.55,3.1,4,.58,5.73,2.62,1.32.31,2.86.18,3.57,1.7,4.6-1.87,5.38-.32,8.01,2.83.68.21,1.37.47,1.59,1.31.86.73,2.64.8,2.72,2.25-.07.03-.14.07-.22.1-1.19-1.6-3.22-1.39-4.37-3.16-.27.45-.41.69-.62,1.06-.73-4.58-4.43-4.97-8.23-3.8.17-.14.35-.28.59-.47-1.03-1.49-2.85-.36-3.92-1.58-1.06-.92-2.81-.34-4.21-.29.14-.36.22-.58.32-.85-2.56-1.99-5.78.62-7.91,2.2-2.2,1.79-2.45,4.68-2.9,7.3-1.38,4.68.81,7.68,3.42,11.33.83,1.26,1.56-.28,1.62-1.13-.15-.92.67-2.09-.41-2.63-.67-.3-.95-2.51-.52-3.12.54-.78,2.03-.55,1.89.51-.07.03-.13.06-.19.08-.26-.25-.52-.49-.77-.74-.59.37-.59,1.41-.02,2.69,2.44-1.15.72-4.85,1.16-7.06-.25-1.45.55-3.77-1.49-3.88.35-.06.7-.11,1.1-.18v-1.6c.79.33,0,1.75,1.37,1.58-.82.45-.67,1.09-.6,1.77.71,5.24-.32,10.94.74,15.98,2.54,1.66,5.3,9.69.07,8.22,4.83.48,1.82-6.8-.73-7.72-.38-.47-.8-1.01-1.24-1.56-.23.28-.37.44-.53.64q-.57-1.07-1.09-.92c.75,1.58,1.49,3.17,2.23,4.75-.09.04-.17.08-.26.12-8.33-20.72-24.37-18.24-27.41,3.48.07.03.13.06.2.09,10.52-8.86,13.4,11.41,12.29-3.57.08,0,.16,0,.24,0,.17,1.85.35,3.69.52,5.53,2.48.15,2.14-2.32,3.36-3.72,3.56-4.74,11.12-2.8,12.41,2.87-.25,1.12-.51,2.24-.76,3.35.08.02.16.04.23.05-.21.14-.42.28-.62.41.01.04.02.08.04.11.22-.04.45-.07.82-.14-.27.39-.47.67-.69,1,1.15-.3,2.28-1.33,3.3-.15-2.06-.76-4.8,1.66-3.94,3.78.14.22-.2.73-.36,1.24-.18-.27-.36-.53-.56-.81-.51.5-.94,1.24-1.79,1.46-.33.26-.43,1.1-.62,1.55-1.44-2.06,1.26-1.67,1.6-3.15.68-.24.94-.6.72-1.36-2.36,2.28-6.64,3.3-9.38,1.41,2.76.93,6.14.47,7.79-.86-.88.2-1.83.78-2.64.13,1.35.07,5.55-1.38,4.92-3.02-3.71,4.66-11.61,1.66-11.72-4.09-2.4.53-2.11.48-1.83,2.81-.79-.7-.1-2.85-1.56-1.99.43,1.99-.08,3.76-1.23,5.36,3,3.6-4.3,4.3-6.46,3.47.36.72.74,1.48,1.16,2.33.99.23,2.35-.39,2.99.84,1.2.08,2.65,0,3.57,1.1,1.65,1.79,4.58.21,6.45-.62,1.68-2.25,3.94-4.03,6.43-1.69-.03.05-.06.11-.09.16-3.28-2.54-6.42,1.33-5.22,4.73-.82-.87-.66-1.87-.95-2.96-.68.62-1.04.93-1.98,1.05v2.25q-1.67-2.26-3.49-1.28c-.16-.26-.32-.53-.53-.87-.17.45-.29.78-.42,1.12-.08,0-.16,0-.24.01.04-2-2.17-3.31-3.92-2.34-.16-1.19-2.71-1.55-3.02-.38-.63-2.17-1.44-3.17-3.47-3.95-.01-.33-.22-1.03-.44-1.39,1.63.75,3.01,2.03,4.95,1.72,1.69-.31,6.41-.13,4.47-2.86-2.98,2.37-6.42,2.36-9.71.64.04.22.06.32.07.42-.24-.1-.48-.2-.72-.3.01-.06.03-.12.04-.18.24-.06.48-.13.85-.23-1.63-1.2-2.13-2.89-2.26-4.66-.39-.12-.69-.21-1-.31,1.28-.41,1.59-1.51.82-2.5.32-1.42.94-2.72-.37-3.91-.47,2.09-.82,4.21-.46,6.4-1.55-3.91.1-8.75,3.18-11.37.71-2.71,1.87-5.43,4.01-7.3,1.39-.64,1.69-1.84,1.74-3.21-.25-3.09,1.09-6.69.01-9.52-3.18-1.97-9.77-7.69-12.74-3.44.08-1.14.68-1.88,1.99-2.31-15.58-2.93-6.33-4.23,1.09-10.98-7.82-8.54-17.86-14.71-25.37-23.53-1.41-2.34,11.72-3.71,13.86-5.33-2.23-2.82-3.85-.6-5.65-2.5-1.23-.38-2.74-.16-3.55-1.57-4.59,2.17-5.55-.29-7.97-2.98-.71-.23-1.5-.47-1.65-1.43-.93-.58-2.55-.73-2.71-2.11.07-.04.14-.08.21-.13.74.69,1.29,1.52,2.44,1.46.84.2,1.24,1.1,1.88,1.71.32-.39.49-.59.74-.9.79,4.39,4.6,5.27,8.2,3.61-.18.16-.36.32-.6.52,1.05,1.37,2.75.38,3.82,1.47,1.07,1.02,2.85.41,4.28.36-.11.35-.19.59-.28.89,3.15,2.21,6.82-1.12,8.99-3.44,2.18-3.24,1.83-7.26,2.23-10.96-.48-1.4-3.49-6.54-4.74-6.75-1,.75-1.23,3.07-.51,4.03.68.45,1.2,2.33.79,3.06-.47.86-2.11.69-1.95-.43.07-.02.13-.04.2-.06.26.25.53.49.92.86.51-1.01.12-1.86-.11-2.73-2.47.8-.76,4.4-1.2,6.42.28,1.54-.66,4.17,1.48,4.43-.33.05-.66.1-1.06.15v1.57c-.06.05-.12.09-.18.14-.31-.97-.48-2.12-1.92-1.58.04-.16.04-.24.06-.24,1.36-.26,1.34-.26,1.22-1.64-.33-4.99-.31-10-.34-15-1.42-2.37-5.76-6.91-2.15-9.2-2.03,2.71.16,5.81,1.97,8.01.17-.12.31-.21.36-.24.47.6.89,1.14,1.39,1.77.22-.41.23-.43.41-.8q.7,1.15,1.17,1.05c-.74-1.66-1.48-3.3-2.22-4.95.1-.04.19-.09.28-.13,8.1,20.74,24.44,18.2,27.42-3.45-.07-.03-.14-.05-.21-.08-1.93,1.93-4.82,3.03-7.37,1.74,5.25,1.64,10.18-4.49,7.42-9.27-.91.72-1.36,2.13-2.51,2.29-1.66-.1-4.31-.95-3.9,1.67-.02.84-.17,1.64-1.01,2.1.43-1.13.48-2.07.67-3.37-.73.36-1.14.59-.81,1.26.34,1.04-.72,1.88-1.13.57-.09.02-.18.03-.27.05-.12,1.26.35,1.56,1.55,1.48-.67.88-1.54.12-2.42,0,.42-3.04,3.35-3.84,5.07-5.74v.63c.08.04.16.08.24.13.56-.85,1.11-1.7,1.7-2.61-.1.71-.19,1.35-.28,1.99.11.04.22.09.32.13.43-.67.86-1.33,1.33-2.05-7.11-4.47-13.37,6.49-5.97,10.72-4.93-1.1-5.37-9.43-4.95,1.82-.08,0-.16,0-.25-.01-.16-1.85-.33-3.7-.49-5.53-1.31.03-2,.51-2.27,1.52-1.71,7.13-12.32,5.74-13.58-.71.4-.82.8-2.38.56-3.34.24-.16.46-.31.86-.59-.46.07-.7.1-1.07.16.28-.39.48-.67.76-1.05-1.14.49-2.12,1.12-3.23.33,2.6.81,4.46-2.71,4.01-4.92.07-.02.15-.05.22-.07.16.27.31.54.47.81.54-.44,1.06-1.19,1.86-1.5.33-.29.26-1.22.58-1.66,1.48,2.13-1.19,1.82-1.6,3.32-.67.23-.94.61-.72,1.31,3.89-2.81,6.22-3.29,9.43-1.55-2.72-.78-5.54-.65-7.95,1.15,2.72-1.2,4.93.22,7.22.82.26-.66.49-1.26.72-1.86-.1.76-.2,1.51-.32,2.36-3.26-1.29-6.18-2.28-9.17,0-.78.16-.83.64-.72,1.32.4-.31.74-.59,1.08-.86.04.05.08.1.12.15-.33.37-.66.74-1.04,1.17.31.28.59.54.97.88v-.73c.3.16.54.3.74.4-.19-.43-.37-.85-.55-1.28,1.21,1.4,1.47,1.57,1.8,1.17,2.89.84,5.7,1.78,6.49,5.17-.85-1.98-2.43-3.04-4.31-3.63-.1.48-.18.87-.26,1.26-.09-.41-.18-.82-.28-1.28-.28.05-.52.09-.56.1-.2.61-.34,1.07-.49,1.52-.1,0-.19,0-.29-.01-.24-.4-.47-.79-.72-1.21-1.6.89,1.69,2.88,2.34.87.12,2.07-2.37,1.79-3.05.36-.52-1.15-1.66-1.27-2.56-1.81-2.32,4.73,4.79,10.18,8.72,7.14,6.39-4.15-.15-14.12-6.81-10.2,3.99-3.41,10.39-.14,10.49,4.91,2.39-.52,2.1-.48,1.82-2.81.79.7.1,2.85,1.57,1.99-.47-1.95.14-3.64,1.22-5.19-2.87-3.77,4.13-4.48,6.46-3.66-.35-.71-.74-1.5-1.11-2.26-.98-.47-2.41.57-3.07-.96-2.79.74-3.38-2.24-5.65-1.59-1.65-.08-2.71,1.03-4.32,1.19-1.8,2.52-4.32,3.96-6.8,1.4.04-.05.07-.1.1-.15,3.12,2.89,6.88-.74,5.59-4.28q.5.34.91,2.75c2.3-1.59,2.06.22,2.03-2.95q1.5,2.17,3.48.97c.15.26.29.53.49.88.18-.45.32-.79.46-1.14.08,0,.15.01.23.02-.1,2.33,2.12,2.57,3.9,2.63.02-.08.04-.16.06-.24,0,1.13,2.74,1.34,3,.42.5,1.92,1.59,3.19,3.36,3.83.19.51.37.98.58,1.55-1.65-2.3-11.78-2.94-9.56,1.01,3.15-2.24,7.21-2.6,10.38-.43h-.91c1.72,1.22,2.13,2.96,2.34,4.71.38.12.68.21.98.3-1.28.41-1.59,1.51-.82,2.5-.32,1.41-.93,2.72.36,3.9.49-2.08.82-4.21.47-6.4,2.18,4.7-1.42,8.99-3.59,12.7-.7,2.6-2.21,5.01-4.39,6.56-1.92,2.69-.52,6.91-1.45,10.1-.51,1.92,1.29,2.49,2.22,3.73m9.93,78.31c.09.41.18.82.27,1.27.26-.04.49-.07.59-.08.17-.62.32-1.15.47-1.67.11,0,.21.01.32.02,2.29,3.79.12-3.3-1.66.48-.33-1.45,1.15-1.8,2.23-1.35,1.1.97,1.8,2.33,3.38,2.63,2.71-6.54-8.03-11.1-10.64-4.85-3.5,5.66,6.12,12.43,9.84,6.56-.27-.23-.54-.46-.91-.78.02.31.03.49.04.74-.33-.18-.57-.32-.76-.42.19.46.38.93.57,1.4-.05,0-.1,0-.16.01-.5-.5-1.01-1.01-1.61-1.61-.08.37-.11.5-.1.48-2.82-.89-5.68-1.79-6.45-5.19.86,1.96,2.43,3.04,4.31,3.62.1-.48.18-.87.26-1.26m-14.95-30.07c-.08-1.48-.5-2.78-.25-4.09.11-.01.22-.02.33-.04.29,1.95.57,3.89.87,5.92,4.74-1.83,9.07-.74,13.25,1.73,2.9-9.51,15.89-9.28,23.79-12.57-8.1-8.6-17.92-14.83-25.62-23.87-10.19,8.53-21.6,15.56-31.47,24.49,6.87,2.06,13.35,3.86,19.09,8.42m-5.58,36.42c5.83,4.1,12.85-4.27,7.7-9.18-4.51-5.21-12.78,2.82-9.14,7.73.73-.79,1.45-1.59,2.12-2.31,7.39,2.05,1.59-5.23,7.57-3.69.08,1.31-1.8,3.99-3.12,4.39-.72.22-1.51.39-1.67,1.33,0,0-.1,0-.16,0-.01-.21-.02-.42-.03-.63-.08-.04-.15-.07-.23-.11-.55.85-1.11,1.69-1.69,2.59.1-.72.19-1.35.28-1.99-.1-.05-.2-.1-.3-.14-.44.66-.87,1.32-1.34,2.02m-4.9-98.05c.12,2.62-1.29,5.74-.17,7.95,3.57,2.19,7.72,2.36,11.73,1.44,1.38-.31,1.53-2.88.65-3.69-4.2-1.55-8.39-3.39-12.22-5.71m23.78,73.24c-.09-2.32,1.13-5.35.27-7.53-2.91-1.76-11.21-3.99-12.86-.35.06,1.06-.66,2.43.87,2.76,4.14,1.07,8,3.14,11.72,5.11m-3.89-82.58c.03.06.06.12.09.19.63-.88,1.26-1.76,1.89-2.64-.04-.02-.09-.04-.13-.07-.29.16-.58.32-.88.48.21-.64.84-1.65.56-2.17-.77-.91-.26-2.04-.4-3.1-.04,0-.08-.01-.12-.02-.34,2.44-.67,4.88-1.01,7.32m-16.01,92.23s-.1-.1-.14-.15c-.61.83-1.22,1.65-1.83,2.48.05.02.09.04.14.07.29-.15.58-.31.86-.47-1.24,1.76.18,3.34-.14,5.26.03,0,.07.01.1.02.34-2.41.67-4.81,1.01-7.22m27.32-6.96c-.07,0-.14-.02-.21-.03-.42,1.45-1.57,4.24.21,5.18v-5.15ZM53.06,63.22v5.22c1.02-1.5.94-4.65,0-5.22m19.73,99.73c.07-3.63-2.9-.21-1.97,1.82.31-.24.56-.42.74-.56-.21-.82-.16-1.34.31-2,.26.21.51.41.92.74m-7.69,5.81c.26-.62.44-1.05.63-1.49-.5.21-.94.39-1.52.62.32.32.56.55.89.87m15.31-121.75c-.28-.29-.51-.55-.83-.89-.23.55-.42,1-.62,1.45.47-.18.87-.34,1.44-.56"/><path class="cls-5" d="m43.69,23.96c-2.74-1.35-6,.21-6.31,3.45-2.17-1.56-3.38,1.77-4.84,2.84-5.72-.31-11.24,6.07-10.57,11.99-.23-.18-.44-.34-.65-.51-1.44.93-2.01,2.31-1.54,3.79-1.99.65-2.76,2.95-.7,4.01-.05.1-.1.19-.16.28-2.54-1.46-2.91,1.98-2.29,3.83.31-.04.6-.07,1.06-.13-.31.32-.51.54-.98,1.04.44.41.88.81,1.47,1.35-.65-.35-1.17-.63-1.78-.96-2.83,5.37.44,11.67,5.32,14.56.31-.6.6-1.16.88-1.72.1.04.2.07.29.11-.56,2.29-.96,3.38,1.69,4.16l-.07.2c-.59-.17-1.17-.33-1.9-.53,1.2,2.07,2.5,3.82,5.06,4.2-2.72,1.2-4.88-2.21-5.93-4.3-1.21-2.68-4.26-3.74-5.79-6.21-2.58-3.53-1.9-8.06-.03-11.59-.98-2.09.56-3.56,1.08-5.43-1.18-.21-3.19-1.04-2.75.98.12,1.74-.08,3.51.38,5.2-2.11,4.6.15,9.36-.14,14.18.11,1.28,3.19.68,3.98.23,1.98.51.27,5.85.75,7.77.83.97,5.03.49,6.28.13.83-1.02,1.7.84,2.78,1.07-2.88.34-1.34,3.72-1.75,5.75.99,3.55,4.54-3.73,6.22-1.81-5.98,4.75-12.13,9.38-18.46,13.65-.74.4-1.02.21-1.04-.6-.58-27.77.13-55.57-.29-83.35,18.24-1.91,39.67-.03,58.96-.67,18.21.8,37.62-1.33,55.24.87-3.68,1.96-19.34,16.86-21.53,14.56-1.85-1.61-6.47,1.17-6.81-2.44-.41-1.37.93-4.53-.88-4.82-2.05.46-6.29-1.3-5.54,2.12-1.81,0-.22-2.6-2.35-2.17-1.43.34-4.49-1.26-4.89.64-.01.5-.1,1.13-.93,1.05.79-3.83-4-.15-4.9-2.93,1.89-.38,5.48,1.23,4.84-1.84-.43-1.24.82-4.26-.94-4.35-8.83-.04-3.89.12-6.02,5.7-1.57-1.16.94-5.6-1.35-5.59-1.62.44-5.51-1.25-5.86.76.12.55-.03,1.02-.39,1.44-.57-.44-.66-1.01-.57-1.7-.87-1.49-4.15-.17-5.82-.48-1.53.76.51,3.28-1.54,3.79-.31-1.25.87-4.04-1.05-3.84-1.54.46-4.79-1.09-5.39.63,0,.22-.29.45-.44.68-.67-.5-.29-1.56-1.33-1.42-9.45-.54-3.07,1.46-6.43,5.82-.35-5.75,1.72-6.31-5.16-5.8-.19,0-.53.38-.53.58.1,5.64-.98,6.04,5.19,5.72-.91,2.46-5.25-.51-5.24,2.16.14,4.15-1.43,1.46-.97-1.1-1.83.36-4.9-.78-6.22.56.25,2.38-1.62,6.71,2.3,5.81-.27,1.8-2.14.39-2.59,1.8-.03.17-.41.27-.63.41-.48-1.09-.48-1.07-1.68-1.09-1.36.35-4.32-1.03-4.76.59-.29,1.17.61,3.32-1.09,3.51-.41-1.59,1.32-4.61-1.33-4.21-1.4.43-4.8-.85-4.97,1.06.62,4.04-1.77,6.01,3.73,5.46-.38,1.54-2,.86-3.12.9-1.14-.27-.88,6.4.17,6.71-1.04.96-1.64,2.28-1.42,3.93-.12-.02-.24-.04-.36-.06-.24-.96.67-3.1-.85-3.07-.92.31-2.99-.55-3.16.7.38,2.79-1.36,5.93,2.86,5.15-.11-.11-.22-.21-.33-.32.64-.58,1.28-1.17,2.06-1.87-.66-1.7,1.49-2.76,2.11-4.19.42-4.86,5.21-12.39,10.87-10.61,1.39-1.83,3.06-3.04,4.96-4.12,1.26-2.86,4.25-3.96,6.87-2.16-.03.04-.05.07-.08.11m-16.95-1.81h.03c.16.97-.47,2.59.53,3.15,1.74-.24,4.33.72,5.65-.44-.3-1.71,1.03-4.94-.43-5.9-3.14.39-6.65-1.53-5.77,3.19m-.98.07h-.01c-.16-.97.46-2.59-.52-3.16-1.67.35-5.14-1.06-5.88.63.45,1.62-.95,5.05.78,5.7,3.11-.39,6.48,1.49,5.63-3.16m7.3-7.7h-.04c-.29-.9.68-3.04-.64-3.07-1.6.47-4.98-.82-5.62.85.45,1.61-1.05,5.15.79,5.69,3.38-.48,6.29,1.4,5.52-3.47m.96-2.92c.3,2.01-.69,4.67.54,6.19,1.8-.19,4.43.79,5.84-.29.29-7.14.21-5.88-6.37-5.89m-14.61-.13c.16,6.43-1.57,6.68,5.61,6.51.23,0,.65-.28.66-.44.55-7.33.32-5.76-6.26-6.07m93.45.29c-2.1.4-5.31-.9-6.54.69.38,1.61-.76,4.85.75,5.63,6.64.15,5.91.05,5.79-6.32M19.35,78.23c.32,2.03-.71,4.79.52,6.25,1.7-.22,4.32.85,5.55-.37.59-7,.48-5.93-6.07-5.89M92.58,11.8c-.41,6.5-1.18,6.24,5.53,6.21,1.42-1.27.24-4.32.61-6.21h-6.14Zm-1.25,5.89c-.25-1.78,1.04-4.64-.29-5.91-1.67.35-5.34-1.19-5.96.62-.16,6.8.19,5.21,6.25,5.29m8.49-5.93c.06,1.8-.66,4.9.56,6.22,1.46-.28,4.39.95,5.09-.45.22-6.35.78-5.96-5.65-5.76m13.96,3.24h-.02c-.92,4.72,3.49,3.23,5.69,1.07.55-.81,1.58-4.16.22-4.3-3.05.44-6.79-1.43-5.89,3.23m-13.95,9.73c1.84-.27,4.18.6,5.54-.44-.2-1.57.73-3.96-.39-5.12-6.15-.53-5.18,0-5.15,5.56M18.49,11.43c-5.88-.38-3.98,1.43-4.2,5.98.58,1.16,2.43.34,3.51.55,1.63-1.08.25-4.52.69-6.53m-.09,10.81h-.02c.3-3.61-.19-3.49-3.57-3.12-1.21,1.29-.25,3.85-.57,5.56.18,1.39,2.43.5,3.44.81,1.4-.08.45-2.3.72-3.25m91.28-3.13v.02c-.94.24-2.96-.63-3.15.68.19,1.48-1.18,6.02,1.69,4.71,2.45-1.63,8.15-5.99,1.47-5.4M14.26,29.37h.11c-.18,3.46-.21,3.79,3.37,3.35,1.55-.84.3-4.01.65-5.65-.54-1.13-2.38-.46-3.43-.73-1.32.05-.45,2.14-.69,3.03m4.02,4.48c-5.5-.76-3.62,1.92-3.97,5.88.59,1.08,2.36.34,3.4.52,1.5-1.1.13-4.51.57-6.4m-3.7,36.54c.41,1.97-.91,5.52.49,6.74.94-.18,2.59.46,3.02-.65-.29-3.86,2.09-6.9-3.51-6.09m3.66,11.07h-.02c-.26-1.01.72-3.42-.89-3.35-.85.28-2.73-.44-2.78.83.44,1.62-.92,5.04.74,5.72,3.22.2,3.06-.17,2.94-3.2m-.16,4.19c-5.09-.85-3.18,2.5-3.51,5.93.44,1.04,2.06.35,2.96.42,1.3-1.46.21-4.32.55-6.36m1.14,5.4c.94-1.29,7.6-4.48,5.66-5.38-5.87-.16-5.97-.9-5.66,5.38M121.14,14.78c1.28-.98,2.5-1.9,3.71-2.82-.04-.07-.07-.14-.11-.21-2.63-.06-4.71-.32-3.6,3.03M14.57,93.11c.02.45.04.83.06,1.37.67-.46,1.17-.8,1.67-1.14-.03-.05-.05-.1-.08-.16-.51-.02-1.02-.05-1.66-.08M113.89,20.14c.41-.32.78-.6,1.22-.93-1.28-.29-1.45-.17-1.22.93"/><path class="cls-5" d="m17.92,202.9c6.74-5.03,13.48-10.07,20.33-15.18-2.16-1.35-4.09-2.81-5.03-5.21,2.5,4.01,6.77,5.71,11.32,5.68,0,.07-.01.15-.02.22h-4.73l-.11.09c5.28.87,7.32-.69,6.64,6.23.5,1.83,3.98.46,5.55.97,1.34.11.73-1.41.87-2.26,1.85.05.15,2.56,2.26,2.19,1.38-.31,4.69,1.22,4.94-.64-.06-.42.16-.98.64-.97.12.01.29.28.32.45,0,3.09,4.02-.07,4.9,2.48-1.53.48-5.07-1.17-4.79,1.11.32,1.41-.77,4.42.7,4.98,8.96.28,4.12.27,6.24-5.55,1.03,1.52.15,3.76.3,5.58,2.45-.53,7.75,1.67,6.89-2.34,2.05-.07-.17,2.84,2.6,2.31,5.95-.07,3.86,1.22,5.32-3.94l.41.08c.35,1.31-.99,4.25,1.21,3.89,1.51-.37,4.44.79,5.21-.62-.1-1.64,1.21-.39,1.01.72,9.07.15,4.71.66,6.93-5.96.09.03.18.06.27.09v5.78c1.68-.41,6.42,1.19,5.71-1.51.16-5.49,0-4.8-5.19-4.78,1.06-2.66,4.8.6,5.21-1.99.18-.65-.46-2.2.57-2.17.71.45.3,1.62.28,2.34.23,1.69,4.13.3,5.55.73,1.79-.48.46-3.86.98-5.39.19-1.55-1.47-.87-2.48-1.02.35-1.92,2.09-.31,2.55-1.57.04-.2.43-.32.81-.59-.08,1.47.86,1.19,1.62,1.19,1.33-.36,4.28.83,4.68-.76.29-1.23-.75-3.23,1.11-3.45-.77,5.93.9,3.75,5.48,4.22,1.81-.67.33-4.3.72-6-.79-.88-2.44-.24-3.59-.42.25-1.52,1.97-.86,3.03-1,1.25-.02.88-6.19-.1-6.83.96-.89,1.62-2.13,1.4-3.74.11.02.23.03.34.05.23.92-.64,2.93.81,2.93.92-.28,3.08.79,3.2-.55-.37-2.41,1.26-5.93-2.54-5.12.78-3.32,3.43,2.95,2.5-6.7-.21-2.9,1.67-5.8.38-8.81-1.1-3.6,1.42-8.59-4.52-6.34-1.9-.55-.22-5.85-.71-7.76-.63-1-2.32-.26-3.34-.43-1.01.21-2.37-.64-3.08.32-.89.5-1.73-.86-2.51-1.24.09-.09.13-.14.17-.15,2.59-.12,1.06-3.68,1.48-5.44-.76-3.58-4.74,3.58-6.23,1.64,6.15-4.61,12.24-9.41,18.61-13.71.67-.26.87-.13.89.59.54,27.75-.11,55.52.31,83.28.01.78-.32.95-1,.95-12.43,0-24.85,0-37.28,0-25.27-.52-50.87.7-75.98-.62,0-.13,0-.25,0-.38m100.49-10.27h-.02c-.27-.98.7-3.22-.76-3.28-1.67.37-4.26-.58-5.43.72.21,1.72-.84,4.37.36,5.63,3.22-.22,6.74,1.78,5.84-3.06m4.08,3.15s0-.03,0-.05c4.89.79,2.92-2.21,3.28-5.56.65-1.08-7-1.26-6.39-.17.46,3.2-1.69,6.61,3.11,5.78m-11.3,7.3c-.02-6.68,1.04-6.54-6-6.17-1.1,1.28-.16,3.82-.4,5.51,1.26,1.52,4.38.27,6.39.66m14.45.18c-.41-2.03.89-5.38-.61-6.5-1.44.47-5.38-.87-5.57.9-.44,7.16-.26,5.45,6.19,5.6m.27-69.69h-.09c.81-4.81-2.11-3.16-5.46-3.38-1.53.73-.35,3.88-.82,5.44.46,2.06,4.1.51,5.74.96,1.24-.17.39-2.13.63-3.02m-13.84,69.48c1.71.02,5.08.7,6.28-.49-.35-1.64.94-4.87-.6-5.7-6.9-.38-5.68-.17-5.68,6.18m-79.81-.12c2.11-.36,5.11.8,6.52-.59-.31-1.69.68-4.43-.68-5.55-6.74-.5-5.94-.25-5.84,6.14m20.3.03c.45-6.21,1.02-6.15-5.34-6.32-1.78.64-.44,4.19-.86,5.84,1.51,1.19,4.27.16,6.21.48m1.35-5.96c-.58,6.89-1.61,6.2,5.37,6.09,1.75-.49.23-3.77.65-5.27-.43-1.95-4.42-.35-6.02-.82m-14.22,2.69s.03,0,.05,0c.19,1.07-.89,3.4.82,3.41,1.4-.45,4.58.91,4.92-.89-.46-1.59.74-4.8-.83-5.53-2.96.31-5.71-1.27-4.96,3m-8.32.42h0c-.09-1,.24-2.44-.24-3.29-3.25-.8-6.56,1.87-6.29,5.24.08,1.85,4.24.47,5.68.92,1.44-.01.67-1.95.85-2.87m13.96-7.29h0c-.19-1.12.67-3.26-1.15-2.97-3.58.09-4.9-.66-4.56,3.65-.67,3.34,3.07,1.92,5.1,2.13,1.19-.17.41-1.96.62-2.8m83.57-3.45c-3.53-.79-1.78,3.68-2.2,5.81.16.81,4.55,1.1,4.18-.12-.45-2.03,1.49-6.33-1.98-5.69m-2.24,13.74c5.69.65,4.08-1.26,4.21-5.66,0-.2-.29-.54-.48-.56-5.44-1.31-3.37,2.62-3.73,6.22m4.23-18.02c.12-3.33-.18-3.56-3.57-3.08-1.32,1.25-.27,4-.55,5.76.57,1.16,2.43.37,3.51.59,1.24-.27.35-2.11.61-3.27m-94.26,10.51v.14c.7-.11,2.03.39,2-.71-.33-1.38,1.27-5.69-1.26-4.93-3.49,2.32-8.97,6.13-.74,5.51m90.24-14.75c1.27-.24,3.14.57,3.85-.49-.25-1.76.89-4.48-.42-5.75-1.31.02-3.91-1.01-3.42,1.2,0,1.68,0,3.34,0,5.04m1.81-36.38c3.2.69,1.58-3.64,2-5.58,0-1.31-.04-1.32-1.34-1.31-.76.16-2.31-.44-2.32.74-.03,1.46-.12,2.93-.13,4.39,0,1.99-.31,1.76,1.78,1.77m-1.77-11.18h.02c.25,1.05-.74,3.5,1.02,3.3.84-.28,2.68.42,2.65-.89-.4-1.62.81-4.64-.64-5.52-3.19-.46-3.24.09-3.05,3.1m2.27-10.56s0-.01,0-.02c-.82.2-2.25-.28-2.14,1.01.24,1.67-.58,3.9.24,5.31.94-.14,3.16.87,3.28-.49-.44-1.68,1.3-6.17-1.38-5.81m-3.25.93c-2.07,1.93-4.78,2.94-6.21,5.27,6.2.61,6.54,1.2,6.21-5.27M24.24,200.08c-.1-.04-.2-.07-.3-.11-1.21.92-2.41,1.83-3.62,2.75,2.95.36,4.02.76,3.92-2.64m104.64-78.56c.03.08.06.16.09.24.99-.14,1.88,0,1.62-1.36l-.22-.08c-.5.4-.99.8-1.49,1.2M30.01,195.48c1.33.28,1.5.14,1.24-.91-.39.29-.76.56-1.24.91"/><path class="cls-5" d="m101.26,88.91c-3.42-.75-7.52-.12-10.58-1.77,3.73-.68,30.96-7.83,30.67-4.62-4.09,5.15-15.76,30.16-20.41,30.15-4.67-3.88-8.7-8.73-12.93-13.14-.79-1.95,11.19-8.5,13.39-10.32-.05-.1-.09-.19-.14-.29m16.25-5.49l-.17-.28c-6.93,1.41-13.87,2.82-20.8,4.22,0,.08.01.17.02.25,2.61.5,5.53.17,7.97,1.12-3.85,3.96-9.04,6.71-13.4,10.16,3.74,3.55,7.41,7.04,11.17,10.61,5.11-8.76,10.16-17.43,15.21-26.09"/><path class="cls-5" d="m18.9,180.24c-.47-3.37,4.25-23.65,8.96-17.69-1.22,10.19-13,19.21-1.61,28.16-.08.08-.15.16-.23.25-.8-.71-1.6-1.42-2.38-2.11.13.26.29.59.46.92-.03.04-.05.08-.08.11-10.05-11.74-14.43-28.27-13.73-43.58-.33-3.88,3.64-20.46,8.98-14.21.83,13.14-9,26.52-3.59,39.77-.08-6.64-.12-14.2,3.09-20.15,1.62-2.05,6.33-10.81,8.11-4.98-.87,11.3-12.27,21.9-7.98,33.49m-6.19-17.05c.11-10.82,5.66-20.72,5.5-31.32-8.2-1.15-7.75,25.41-5.5,31.32m4.07,11.83c1.15-9.08,5.98-17.09,8.88-25.67,2.45-10.64-7.85,3.39-7.86,6.76-.9,6.36-2.35,12.38-1.01,18.9m3.14,6.24c.98-6.35,7.92-13.93,6.69-19.66-5.25,4.45-7.55,13.08-6.69,19.66"/><path class="cls-5" d="m33.68,131.93c-.86.63-1.98.72-2.94.28-3.21-1.48-9.33-3.63-7.59-5.65,4.78-7.49,10.43-14.37,15.58-21.6.28-.39.55-.37.87-.12,4.56,3.81,8.8,8,13.4,11.76,3.18,1.48-13.96,11.43-19.31,15.34m7.16-25.02l-14.7,20.78c-.32.46-.18,1.1.32,1.36,1.63.83,3.26,2.25,4.89,1.8,7-4.64,13.6-9.58,20.41-14.54-3.66-3.14-7.24-6.22-10.93-9.39"/><path class="cls-5" d="m100.99,191.04c2.89,1.48,5.73-.54,6.41-3.51,2.09,1.32,3.52-1.74,4.85-2.86.13-.13.4-.31.5-.26,1.24.63,2.38.17,3.41-.44,3.96-2.41,7.13-6.61,6.65-11.3.16.12.38.29.67.51.89-1.13,2.2-2.06,1.49-3.58,1.69-1.3,2.79-2.71.67-4.16.04-.08.09-.17.13-.25,2.54,1.47,2.92-2.14,2.3-3.99-.31.04-.61.07-1.06.13.31-.32.51-.54.98-1.04-.44-.41-.88-.8-1.5-1.36.68.37,1.19.64,1.8.97,2.9-5.45-.47-11.68-5.32-14.54-.32.59-.62,1.14-.92,1.7l-.27-.12c.62-2.43.77-3.12-1.61-4.31.59.15,1.17.3,1.77.45-.81-2.05-2.54-3.53-4.91-4.18,4.14-1.37,5.21,4.56,7.61,6.61,2.43,1.92,4.69,3.99,5.44,7.08,1.21,3.14-.53,5.85-1.27,8.69.55,1.58-.05,2.97-.84,4.32-.46,1.43-.53,3.23-2.37,3.9.81,2.19-1.41,3.05-2,4.76-.61,4.97-5.25,12.21-10.99,10.5-1.07,2.7-4.07,2.97-5.54,5.15-1.45,2.1-4,2.67-6.15,1.23.03-.04.05-.07.08-.11"/><path class="cls-5" d="m36.18,137.17c.65-2.16,22.48-13.78,14.43-7.24-5.03,1.96-8.91,6.74-14.29,7.6-.05-.12-.09-.24-.14-.37"/><path class="cls-5" d="m22.49,94.14c3.63-3.19,7.5-6.11,11.21-9.2,1.59-1.08,2.78,1.52,4.24,2.31-2.77,1.52-5.4,2.95-8.22,4.5,1.53,1.78,2.98,3.45,4.43,5.12-.03.07-.06.15-.09.22-3.84-.87-7.69-1.73-11.53-2.6-.01-.12-.02-.23-.04-.35m14.22-7.13c-1.72-1.96-1.95-1.98-3.79-.42-3.14,2.63-6.12,5.03-9.21,7.79,3.13.73,6.1,1.42,9.07,2.12.03-.05.06-.1.09-.15-1.45-1.64-2.91-3.27-4.45-5,2.84-1.48,5.53-2.89,8.28-4.32"/><path class="cls-5" d="m125.55,95.91c-2.07.11-4.28-1.87-1.79-3.3,1.22-.74,2.17-2.48,3.86-1.92,3.8,2.06,1.52,5.23-2.07,5.21"/><path class="cls-5" d="m105.63,74.82c8.37-1.64,17.39-4.13,25.76-4.23-8.06,2.52-17.21,3.5-25.68,4.51-.03-.09-.06-.19-.08-.28"/><path class="cls-5" d="m131,75.03c-10.99,1.73-21.87,4.15-32.91,5.6-.03-.11-.05-.22-.08-.32,10.9-2.02,22.11-4.55,33.02-5.62-.01.12-.02.23-.03.35"/><path class="cls-5" d="m109.32,69.65c7.42-1.81,14.99-2.73,22.62-3.98-.07.77-.41.95-.86,1.03-7.21,1.23-14.42,2.77-21.7,3.36-.02-.14-.04-.28-.06-.41"/><path class="cls-5" d="m41.2,146.25c-3.35.1-4.61,2.59-2.7,5.36-3.34-1.13-3.84,1.51-3.54,4.16,1.11-.22,1.94-.47,3.01-.4-4.56,1.36-8.85,3.46-6.81,9.09.46.6,1.26.28,2.06.27-2.02.71-4.45,1.4-2.95,3.97-1.38-1.22-1.01-2.92.54-3.61-.44-2.75-1.74-6.64,1.67-7.92,3.99-1.05-.28-7.47,5.2-6.08-.69-1.92-1.27-3.8,1.29-4.88-2.44-5.12,2.63-7.53,7.04-7.04-3.51.47-8.64,1.98-6.68,6.57.47.51,1.07.34,1.87.5"/><path class="cls-5" d="m111.62,50.21c3.03-.92,3.56-1.79,3-3.92,2.01,2.29-.89,2.74-.67,4.45.95,4.02.66,6.12-3.35,7.89-1.19,2.06.98,6.17-3.45,5.33.3,1.75,1.06,4.25-1.44,4.61,2.48,4.8-2.84,8.1-7.05,7.17,3.56-.18,8.64-2.37,6.68-6.63-.39-.47-1.11-.35-1.74-.48,3.49-.43,4.22-2.17,2.65-5.18,3.22,1.06,3.78-1.78,3.45-4.33-1.1.19-2.14.36-3.18.54,0-.05,0-.1-.01-.14,2.55-1,6.48-1.73,7.31-4.7-.33-1.95.8-5.3-2.2-4.58"/><path class="cls-5" d="m43.77,23.85c2.59-6.58,11.8-14.41,17.98-7.45,2.67-2.48,6.91-3.21,9.93-.89l-.13.14c-3.76-2.07-7.37-.81-10.18,2.12-3.88-9.8-18.38,2.63-17.67,10.03-.09,0-.18-.01-.27-.02.09-1.27.17-2.55.26-3.82.03-.04.05-.07.08-.11"/><path class="cls-5" d="m100.91,191.15c-2.78,6.53-11.77,14.35-18.01,7.24-2.45,2.99-6.9,3.22-9.9.95.04-.05.09-.09.13-.14,3.23,2.03,8.13,1.35,9.85-2.26.13.06.26.12.4.18-.47,1.37.54,1.84,1.33,2.38,7.33,4.16,15.8-5.23,16.32-12.28.07,0,.14,0,.21.01-.09,1.27-.17,2.55-.26,3.82-.03.04-.05.07-.08.11"/><path class="cls-5" d="m12.16,183.24c2.7-4.18,5.5,10.75,11.33,12.26-5.18-.87-12.76-6.54-11.32-12.27-.16,4.59,3.75,8.11,7.45,10.2-3.18-1.79-4.27-11.51-7.46-10.19"/><path class="cls-5" d="m111.42,65.35c26.54-6.17,26.79-3.11.03.24-.01-.08-.02-.16-.03-.24"/><path class="cls-5" d="m124,97.44c6.41.4-2.35,6.61-3.04,1.82.11-1.41,1.82-1.91,3.04-1.82"/><path class="cls-5" d="m28.64,183.1c-.26-4.17,5.45-1,3.51,1.74-.97,2.37-3.96.33-3.51-1.74"/><path class="cls-5" d="m36.35,99.08c-7.27,6.79-14.54,13.58-21.81,20.36-.08-.08-.16-.16-.24-.24,7.17-6.88,14.16-14.22,21.86-20.43.06.1.12.21.19.31"/><path class="cls-5" d="m114.61,60.74c5-1.72,10.65-2.25,15.92-3.27.45-.17.73.14,1.05.4-5.15,1.61-11.35,2.55-16.89,3.06-.03-.07-.05-.13-.08-.2"/><path class="cls-5" d="m13.53,115.59c6.3-4.77,12.41-12.4,18.93-15.68-6.28,5.32-12.25,10.93-18.75,15.91-.06-.08-.12-.15-.18-.23"/><path class="cls-5" d="m20.51,197c-1.03,3.58-8.08-1.58-8.45-4.08-.38-.78-.33-3.38,1.05-2.23,1.98,2.43,3.45,7.48,7.41,6.31m-8.03-6.41c-1.11,1.73,1.92,5.68,3.49,5.89-1.04-1.96-2.08-4.05-3.49-5.89"/><path class="cls-5" d="m117.17,56.09c4.71-1.05,10.11-2.4,14.83-2.19-4.36,1.85-9.96,1.58-14.75,2.42l-.08-.23Z"/><path class="cls-5" d="m28.46,101.16c-5.04,3.82-9.98,7.56-14.92,11.31-.06-.07-.12-.14-.18-.2,4.46-3.87,9.24-7.36,13.89-11.01.54-.42.6-.41,1.21-.09"/><path class="cls-5" d="m132.24,50.58c-4.14.37-8.12.72-12.11,1.07-.03-.11-.06-.22-.09-.33,2.31-.32,11.14-2.64,12.2-.74"/><path class="cls-5" d="m125.1,106.78c-2.3.19-1.65-3.36.31-3.07,2.33-.14,1.85,3.44-.31,3.07"/><path class="cls-5" d="m120.74,102.51c3.26.9-.97,4.34-2.11,2.21-.96-1.52.94-1.82,2.11-2.21"/><path class="cls-5" d="m66.33,196.37c-.86-.31-.55-1.22-1.52-1.08-1.45.04-2.56-.59-3.53-1.63.04-.1.09-.2.13-.3-4.53.98-10.36.77-12.01-4.44.12-.08.25-.17.37-.25,1.4,5.81,7.81,4.54,12.3,4.18.39.52-.21,1.47.68,1.76,1.14.54,2.29.48,3.49.07-.06.57.04,1.14.09,1.7h0Z"/><path class="cls-5" d="m38.17,132.81c1.06-1.45,5.38-3.97,7.76-4.18-.28.68-6.84,4.25-7.76,4.18"/><path class="cls-5" d="m23.39,136.53c-.22-2.15,2.92-1.31,3.04.26-.24,1.4-3.2,1.87-3.04-.26"/><path class="cls-5" d="m82.99,21.63c3.77-.7,8.12-1.49,10.81,1.88-4.19-4.12-11.04,0-11.42-2.01.22-.62-.06-1.04-.6-1.18-1.99-1.15-3.91,1.36-3.19-1.67.09.07.29.15.3.24.49,1.83,4.37.01,4.1,2.74"/><path class="cls-5" d="m123.03,34.78c.17-2.6,3.03-1.49,2.86.52-.22,1.5-3.09.87-2.86-.52"/><path class="cls-5" d="m123.17,77.6c.53,3.06,1.33,6.36,1,9.41-.98-2.87-1.19-6.36-1.29-9.41.1,0,.19,0,.29,0"/><path class="cls-5" d="m13.27,108.97c3.33-2.07,6.99-5.99,10.56-6.61-3.45,2.31-6.89,4.61-10.34,6.92-.07-.1-.15-.2-.22-.3"/><path class="cls-5" d="m53.64,135.11c-2-.3-6.16.07-4.49,3.03.29.38-.02.67-.4.67-3.56-.78-.67,1.79-3.37,1.95q-1.08.08-1.61.85c-.34-2.25,2.52-.73,2.5-2.45-.02-.79.65-1.13,1.37-1.16.52-.02.63-.22.7-.71.25-2.43,3.38-3.92,5.29-2.18"/><path class="cls-5" d="m100.87,73.36c.27,2.34-2.41.74-2.47,2.37.02.82-.69,1.03-1.33,1.09-.52.05-.69.2-.76.75.07,2.47-3.74,3.69-5.18,2.32,9.39-.17.7-4.57,6.84-3.86-.52-2.69,2.19-.94,2.9-2.66"/><path class="cls-5" d="m131.22,34.73c.12,1.66-2.82,1.28-2.88.03.12-2.41,2.71-2.28,2.88-.03"/><path class="cls-5" d="m29,187.24c.02,1.66-2.49,2.23-2.73.5.05-1.98,2.49-2.95,2.73-.5"/><path class="cls-5" d="m32.59,97.69c-4.6-.91-9.33-1.64-13.8-3.04.04-.12.08-.24.12-.36,4.58,1,9.15,2,13.73,3.01-.02.13-.03.26-.05.39"/><path class="cls-5" d="m115.38,32.28c.08,2.13-3.12,1-2.74-.61.13-1.8,2.96-1.09,2.74.61"/><path class="cls-5" d="m117.63,40.73c-.35-.75,1.2-1.77,1.62-.81.65.68,2.1,1.93.42,2.43-1.14.33-2.09-.38-2.04-1.62"/><path class="cls-5" d="m17.51,95.8c4.53.86,9.06,1.72,13.59,2.59-.01.07-.03.15-.04.22-.93.21-12.96-2.11-13.55-2.81"/><path class="cls-5" d="m119.06,28.44c.35,1.8-2.78,1.17-2.67-.08-.17-2.23,2.74-1.99,2.67.08"/><path class="cls-5" d="m122.41,28.02c.11-2.39,3.46-.32,2.58,1.28-.78,1.25-2.65-.11-2.58-1.28"/><path class="cls-5" d="m124.51,22.4c.27,1.83-2.9,1.04-2.72-.29.21-1.99,2.69-1.58,2.72.29"/><path class="cls-5" d="m12,196.86c1.95-.95,3.4,4.95,7.54,3.07-1.51,1.87-8.48-.22-7.53-3.08.11,1.25,1.66,2.66,2.96,2.72-.97-.84-1.71-2.26-2.97-2.71"/><path class="cls-5" d="m127.85,27.82c-.14-2.21,2.8-.88,2.72.48.03,1.85-3,.94-2.72-.48"/><path class="cls-5" d="m129.8,21.96c-.02.51-.06,1.08-.92,1.05-4.03-.24.48-5.25.92-1.05"/><path class="cls-5" d="m124.87,77.48c.26,2.33,1.19,5.14.39,7.3-.87-2.07-.86-5.05-.71-7.28.1,0,.21-.01.31-.02"/><path class="cls-5" d="m119.83,35.23c-.65,1.14-2.63.61-2.69-.57-.16-2.31,2.86-1.33,2.69.57"/><path class="cls-5" d="m100.17,26.65c3.69-1.55,9.69,1.47,11.38,5.84-2.55-3.93-6.71-6.22-11.4-5.62,0-.07,0-.14.01-.21"/><path class="cls-5" d="m130.55,43.13c.94,0,1.32.44,1.33,1.49.16,1.55-2.67.76-2.4-.24,0-.86.33-1.25,1.07-1.25"/><path class="cls-5" d="m117.34,109.6c-2.75-1.24-.11-3.02,1.33-2.05.85,1.14-.49,1.42-1.33,2.05"/><path class="cls-5" d="m126.43,45.09c.17,1.54-2.69.78-2.39-.26-.08-1.84,2.64-1.51,2.39.26"/><path class="cls-5" d="m128.2,16.73c-1.89.15-2.17-2.19-.42-2.08,1.7-.1,2.32,2.24.42,2.08"/><path class="cls-5" d="m124.86,41.06c-2.92-.05-1.31-3.55.24-1.87.66.58.88,1.73-.24,1.87"/><path class="cls-5" d="m124.95,111.45c-1.4.17-1.07-2.32.18-2.22,1.97.02,1.89,2.27-.18,2.22"/><path class="cls-5" d="m126.1,78.51c-.1-.46.08-.74.44-1.01.66,1.49.92,3.98.35,5.53-1.19-1.07-.46-3.06-.75-4.53-.01,0-.03,0-.04,0"/><path class="cls-5" d="m15.24,96.78c4.45.92,8.91,1.85,13.36,2.77-.02.08-.04.17-.05.25-4.47-.89-8.99-1.47-13.36-2.81.02-.07.04-.14.05-.21"/><path class="cls-5" d="m119.6,47.15c-2.9-.02-1.33-3.59.22-1.81.64.65.86,1.64-.22,1.81"/><path class="cls-5" d="m25.22,182.12c1.91.47,1.44,2.16-.32,2.12-1.21-.33-1.54-2.14.32-2.12"/><path class="cls-5" d="m130.43,40.65c-.83-.09-2.42-.63-1.72-1.74,1.05-1.67,3.86,1.4,1.72,1.74"/><path class="cls-5" d="m30.07,154.24c-1.54-.09-1.56-2.12.06-2.1,1.81.04,1.43,2.05-.06,2.1"/><path class="cls-5" d="m32.43,148.6c.65,0,1.07.72,1.26,1.34-1.16,1.47-4.26-1.45-1.26-1.34"/><path class="cls-5" d="m13.98,98.22c3.7.77,7.4,1.54,11.1,2.31-.02.1-.04.2-.06.3-3.7-.74-7.39-1.49-11.09-2.23.02-.12.04-.25.06-.38"/><path class="cls-5" d="m66.33,196.38c.98-.11,1.96-.23,3.08-.36-.48-.9-.84-1.57-1.19-2.24.05-.05.09-.1.14-.15,1.62,1.79,2.63,4.15,4.77,5.55-.04.05-.08.09-.13.14-2.33-2.18-3.26-3.42-6.67-2.96h0"/><path class="cls-5" d="m22.12,142.04c-.95-.9-1.18-2,.36-2.14,1.79.21.74,1.43-.36,2.14"/><path class="cls-5" d="m71.68,15.51c1.46.77,2.51,3.21,4.24,2.92.44-.18.97-.15,1.49-.04-.67.18-1.34.36-2.08.55.43.79.78,1.45,1.14,2.12-.05.05-.11.1-.16.15-1.6-1.82-2.62-4.15-4.76-5.56.04-.05.08-.1.13-.14"/><path class="cls-5" d="m116.22,111.41c-.27,1.29-1.68,1.68-2.11.44,0-1.12,1.49-1.45,2.11-.44"/><path class="cls-5" d="m54.15,131.03c.76-1.32,1.97-.8,3.11-.74.07-.35.13-.68.19-1.02h.27c.11.72.22,1.45.35,2.35-1.4-.84-2.63-.92-3.92-.6"/><path class="cls-5" d="m128.1,77.28c.06,1.44.67,3.11.11,4.45-.91-1-.4-3.06-.44-4.42.11,0,.22-.02.33-.03"/><path class="cls-5" d="m121.07,108.92c2.07,1.21.25,2.45-.99,1.04.29-.31.58-.61.99-1.04"/><path class="cls-5" d="m30.49,173.41q.77.61,1.67-.41c-.85,2.35-.78,4.72-.17,7.1-1.55-2.11.21-4.92-1.6-6.59.03-.03.07-.06.11-.1"/><path class="cls-5" d="m95.51,25.54c2.03-1.66,4.83.42,4,3.37-.1-2.48-1.25-3.98-4-3.37"/><path class="cls-5" d="m114.19,41.43q-.77-.61-1.67.41c.83-2.35.8-4.72.16-7.1,1.57,2.11-.2,4.92,1.61,6.59-.04.03-.07.07-.11.1"/><path class="cls-5" d="m45.03,186.23c.43,2.38,1.59,3.55,4.08,3.44-1.89,1.43-4.8-.91-4.08-3.44"/><path class="cls-5" d="m126.28,113.98c-1.21,1.74-2.5-.44-1-.98.52-.02.87.21,1,.98"/><path class="cls-5" d="m28.63,139.82c.35.43.55.68.76.93-1.23,1.41-2.48.33-.76-.93"/><path class="cls-5" d="m24.12,118.76c-1.47-1.26.13-2.18,1.08-1-.31.29-.62.57-1.08,1"/><path class="cls-5" d="m112.39,116.1c-.31-.39-.48-.61-.66-.83.63-.45,1.06-1.04,1.66-.14-.29.28-.58.56-1.01.97"/><path class="cls-5" d="m22.15,121.83c-1.24-1.14.23-2.4,1.06-1.04-.3.29-.59.58-1.06,1.04"/><path class="cls-5" d="m26.64,115.95c-1.47-1.08.19-2.12,1.01-.84-.3.25-.59.49-1.01.84"/><path class="cls-5" d="m129.27,80.26c-.47-.98-.23-1.99-.28-3.1.6.5.78,2.45.28,3.1"/><path class="cls-5" d="m52.48,112.79c.72.61-.12,1.14-.39,1.74-.79-.38,0-1.13.12-1.75h.28Z"/><path class="cls-5" d="m15.31,127c.17.55,1.05.7.5,1.32-1.21.65-1.59-.58-.5-1.32"/><path class="cls-5" d="m29.12,112.65c-.35-.31-.57-.5-.8-.69.59-.57,1.02-.63,1.61-.02-.24.21-.48.42-.81.71"/><path class="cls-5" d="m30.38,173.5c-1.06-.96-.42-3.09.8-3.98-.06,1.41-1.45,2.37-.7,3.88-.03.03-.07.06-.11.1"/><path class="cls-5" d="m18.98,124.45c.25.37.55.68.5.74-.43.59-.84.85-1.34.1.23-.23.46-.46.84-.84"/><path class="cls-5" d="m114.29,41.34c1.13,1.3.18,2.89-.61,4.03-.08-.02-.16-.05-.24-.07.2-1.36,1.53-2.39.74-3.85.04-.03.07-.07.11-.1"/><path class="cls-5" d="m19.94,143.85c.31.36.5.57.68.78-.93,1.07-1.91.25-.68-.78"/><path class="cls-5" d="m120.06,112.32c.3.3.5.51.71.72-.54.69-1.01.33-1.61-.03.26-.2.52-.4.9-.69"/><path class="cls-5" d="m32.44,109.4c-.37-.28-.65-.5-.93-.72.57-.74.96-.31,1.52.13-.16.16-.32.32-.58.59"/><path class="cls-5" d="m39.24,129.81c.54-.32,1.08-.65,1.72-1.03-.01,1.02-.73,1.5-1.59,1.27-.04-.08-.09-.16-.13-.24"/><path class="cls-5" d="m30.63,145.22c-.18-.28-.43-.57-.39-.61.42-.46.78-.89,1.27-.18-.26.24-.52.47-.88.79"/><path class="cls-5" d="m49.94,112.31c-.26-.32-.38-.47-.51-.63.49-.26.89-.95,1.33-.25-.24.26-.49.52-.82.88"/><path class="cls-5" d="m21.42,130.71c-.32-.33-.53-.55-.74-.77.55-.51.91-.33,1.36.16-.18.17-.35.35-.63.61"/><path class="cls-5" d="m118.26,116.23c.43-.64,1.76-.63,1.54.17-.52.31-1.03.33-1.54-.17"/><path class="cls-5" d="m44.32,106.98c-.27-.3-.4-.46-.54-.61,1.02-1.09,1.69-.5.54.61"/><path class="cls-5" d="m41.64,104.49c-.13-.71.79-1.37,1.24-.66-.33.31-.66.62-.99.92-.08-.09-.17-.17-.25-.26"/><path class="cls-5" d="m130.59,79.23c-.56-.2-.69-.84-.37-1.89q.42.33.37,1.89"/><path class="cls-5" d="m111.64,117.51c-.45.26-.79.66-1.19.07.38-.32.68-.67,1.16-.3,0,.08.02.16.03.24"/><path class="cls-5" d="m54.27,115.36c.93.27,1.02.58.49,1.47-.2-.59-.34-1.03-.49-1.47"/><path class="cls-5" d="m54.01,131.62c.16,1.21-.7,1.78-1.65,2.31.54-.75,1.08-1.5,1.65-2.31"/><path class="cls-5" d="m90.63,83.17c.12-.99.35-1.3,1.66-2.08-.51.73-1.03,1.46-1.54,2.19-.04-.04-.08-.07-.12-.11"/><path class="cls-5" d="m125.28,117.86c-.34-.74-.43-.86.14-1.27.57.48.25.61-.14,1.27"/><path class="cls-5" d="m46.64,108.89c1.28-.61,1.51-.03.2.48-.07-.16-.13-.32-.2-.48"/><path class="cls-5" d="m35.08,104.66c.38.22,1.06.17.81.78-.33-.11-.66-.22-.98-.34.06-.15.12-.29.17-.44"/><path class="cls-5" d="m12.48,130.13c.19.25.32.41.45.57-.44.55-1.18-.1-.45-.57"/><path class="cls-5" d="m72.37,93.87c3.98-2.4,9.57-.7,14.03-.64,0,.07,0,.15,0,.22-4.54.62-9.7-1.58-13.85.74-.06-.11-.11-.21-.17-.32"/><path class="cls-5" d="m48.69,90.61c1.36-1.08,12.19,1.13,13.56,2.86-4.24-2-9.02-2.12-13.56-2.86"/><path class="cls-5" d="m69.3,95.09c.21,2.01-1.9,2.98-3.39,1.33,1.72.87,2.67.19,3.39-1.33"/><path class="cls-5" d="m53.52,60.33c-.35-.13-.51-.19-.66-.25-.06.05-.11.11-.17.16.23.29.46.58.82,1.04-.98.22-1.34-.54-1.11-1.19.75-1.35-.62-2.92-.76-4.36-.13,0-.26,0-.38,0-.13.54-.26,1.08-.44,1.84-.68-1.03.1-2.96,1.14-1.82.86,1.43,1.02,2.87,1.57,4.57"/><path class="cls-5" d="m70.89,60.92c.61-1.53-1-2.59-1.49-4.16.86.14,3.78,4.46,1.49,4.16"/><path class="cls-5" d="m70.54,60.43c-1.6,2.02-2.92,1.48-4.91.59-.07.08-.15.16-.22.24l-.03-.75c1.52-.12,2.65,2,3.96.32.3-.28.57-.71,1.21-.4"/><path class="cls-5" d="m65.86,56.86c.49,1.5-.81,2.4-1.34,3.86-.72-1.5.74-2.57,1.34-3.86"/><path class="cls-5" d="m71.57,68.18c-.47,1.78-4.47,2.51-6.13,1.16,2.31.69,4.25.36,6.13-1.16"/><path class="cls-5" d="m66.17,65.12c-1.36.29-2.2,1.83-3.77,1.64,1.33-.37,2.19-1.85,3.77-1.64"/><path class="cls-5" d="m73.77,66.36c-1,.96-2.17,1.37-3.68,1.15,1.33-.41,2.51-.78,3.68-1.15"/><path class="cls-5" d="m61.23,66.91c1.05.11,2.05.22,3.06.33-.59.5-2.21.33-3.06-.33"/><path class="cls-5" d="m51.82,60.63c-.85-.79-1-1.69-.45-2.36.15.75.29,1.49.45,2.36"/><path class="cls-5" d="m69.17,64.95c-.07.76-.82,1.04-1.71.58.55-.19,1.12-.38,1.71-.58"/><path class="cls-5" d="m72.04,120.94c-1.18,2.1-11.15,1.07-13.76.89.01-.1.02-.2.04-.31,4.54-.43,9.38,1.05,13.72-.59"/><path class="cls-5" d="m82.46,121.37c4.27,2.23,8.94,2.42,13.72,2.72-1.67,1.36-12.37-.83-13.72-2.72"/><path class="cls-5" d="m78.27,118.02c-1.4-.16-2.22.36-3.03,1.61-.11-1.65,1.8-2.7,3.03-1.61"/><path class="cls-5" d="m94.11,157.68c-.45,4.76-2.65-1.19-2.94-2.93.3.07.47.11.65.15.05-.04.11-.08.16-.13-.22-.29-.44-.58-.78-1.03.88-.25,1.35.49,1.15,1.09-.88,1.3.4,3.02.87,4.31.08,0,.17,0,.26,0,.11-.5.22-.99.34-1.49.1,0,.21.02.31.03"/><path class="cls-5" d="m74.94,158.09c-.52-.81-3.19-3.88-1.46-4.17.36,1.5,1.02,2.69,1.71,4.02-.08.05-.16.1-.25.15"/><path class="cls-5" d="m74.24,154.46c1.64-2.6,2.86-.86,5.05-.5,0,.01.06.24.16.65-1.59.05-2.83-2.21-4.11-.6-.29.29-.56.72-1.1.45"/><path class="cls-5" d="m78.78,158.05c-.45-1.58,1.12-2.34,1.17-3.69,1.34,1.15-.69,2.41-1.17,3.69"/><path class="cls-5" d="m79.16,145.4c-1.79-.26-2.79-.6-5.97,1.21.19-1.45,4.33-2.36,5.97-1.21"/><path class="cls-5" d="m82.27,148.07c-1.36.4-2.19,1.87-3.74,1.86,1.29-.54,2.12-2,3.74-1.86"/><path class="cls-5" d="m70.68,148.52c.61-.84,1.4-1.07,3.73-1.01-1.22.33-2.43.66-3.73,1.01"/><path class="cls-5" d="m80.41,147.6c1.07-.55,2.04-.13,3,.32-1-.11-2-.21-3-.32"/><path class="cls-5" d="m93.31,156.73c-.14-.73-.28-1.45-.42-2.16.73.15,1,1.42.42,2.16"/><path class="cls-5" d="m75.5,150.05c.09-.79.83-1.06,1.71-.58-.54.19-1.11.38-1.71.58"/><path class="cls-5" d="m54.41,54.6c.77-2.35,2.49.2,3.69.67-.25.13-.58.29-.97.49-.01-.13-.03-.31-.05-.56-.33.02-.65.04-1.01.06v-.61c-.25.36-.45.64-.64.93-.05-.02-.1-.05-.15-.07.04-.51.08-1.01.12-1.56-.28.18-.58.38-.99.65"/><path class="cls-5" d="m56.08,49.12c2.48-1.26,5.28-.35,5.87,2.24-1.7-2.1-3.18-2.66-5.87-2.24"/><path class="cls-5" d="m85.87,168.96c-1.45-.39-3-.72-4.41-1.18-.21.36-.39.64-.56.93.04-.44.08-.87.13-1.46,1.71.6,3.27,1.16,4.84,1.71"/><path class="cls-5" d="m89.28,160.88c.29-.18.59-.38.93-.6-.69,2.34-2.54-.19-3.6-.73.23-.11.57-.28.89-.43.22.51.46.55,1.1.48,0,.03.01.24.03.52.22-.3.41-.57.61-.84.05.01.09.03.14.04-.03.52-.07,1.04-.1,1.56"/><path class="cls-5" d="m71.6,50.81c-.47-2.02,2.75-4.29,4.79-3.62-2.26.25-3.94,1.43-4.79,3.62"/><path class="cls-5" d="m75.7,53.84c.84-.73,1.24-2.2,2.38-2.23-.8.75-.96,2.15-2.38,2.23"/><path class="cls-5" d="m68.11,167.61c2.39-.33,4.41-.91,4.82-3.58.85,2.2-2.55,4.25-4.82,3.58"/><path class="cls-5" d="m66.51,163.18c.84-.7,1.01-2.1,2.56-1.99-.49.43-.91.79-1.33,1.15-.36.31-.36,1.16-1.23.83"/><path class="cls-5" d="m106.46,88.65c-1.74-.53-3.28-1-4.81-1.47.02-.1.04-.21.05-.32,13.97-1.11,17.5-6.06,7.43,8.6-2.37,3.8-4.93,7.48-7.44,11.19-1.59,1.24-3.99-3.34-5.51-4.19-.59-1.06-3.57-2.23-2.48-3.45,4.35-3.4,8.28-7.11,12.76-10.36m-5.66,17.57c4.56-6.76,9.09-13.48,13.62-20.2-.06-.08-.12-.16-.18-.23-3.65.44-7.31.88-11.05,1.34,1.59.56,3.28.61,4.59,1.61-4.09,4.12-9.02,7.35-13.45,11.13,2.18,2.14,4.26,4.19,6.47,6.36"/><path class="cls-5" d="m41.71,110.6c-4.05,4.58-9.15,15.2-14.42,16.87,4.38-6.19,8.99-12.19,13.88-17.99,1.6-.5,3.43,2.54,4.97,3.3,1.04.97,2.61,1.54,2.78,3.1-2.77-1-4.73-3.67-7.21-5.29"/><path class="cls-5" d="m109.31,88.34c-.59-.39-1.1-.74-1.61-1.08,0-.09.02-.17.02-.26,1.73-.33,3.7-.85,5.39-.27-3.21,5.6-7.65,10.61-11.21,16.05-.72,1-.96.98-1.7.01-.57-1.09-2.36-2.05-2.11-3.34,3.68-3.78,7.52-7.36,11.22-11.12m-.85-.9c.94.77,2.05.8.75,1.87-1.62,1.62-3.25,3.22-4.87,4.85-1.73,2.01-4.29,3.74-5.57,5.99.66.95,1.38,1.86,2.16,2.88,3.85-5.37,7.58-10.57,11.31-15.77-.05-.06-.09-.13-.14-.19-1.13.12-2.26.24-3.64.38"/><path class="cls-5" d="m69.99,64.98c.97-.45,2.68.39,2.49,1.54-.45-.32-.71-.68-1.08-1.06-.37-.3-.87-.49-1.39-.43l-.02-.05Z"/><path class="cls-5" d="m75.44,149.45c-1.2.39-3.28-.11-3.42-1.54.58.36.99.75,1.55,1.1.72.41,1.23.32,1.87.44"/><path class="cls-2" d="m113.09,208H13.52c-3.88,0-7.02-3.14-7.02-7.02V15.02c0-3.88,3.14-7.02,7.02-7.02h116.97c3.88,0,7.02,3.14,7.02,7.02v186.44c0,3.62-2.93,6.55-6.55,6.55h-17.86Z"/></g></g></g></svg>