<?xml version="1.0" encoding="UTF-8"?><svg id="Layer_1" xmlns="http://www.w3.org/2000/svg" viewBox="0 0 144 216"><defs><style>.cls-1{stroke-linecap:round;stroke-linejoin:round;}.cls-1,.cls-2,.cls-3{fill:none;stroke:#3b55a3;}.cls-4{fill:#fde3cc;}.cls-5{fill:#3b55a3;}.cls-2{stroke-width:.75px;}.cls-2,.cls-3{stroke-miterlimit:10;}.cls-3{stroke-width:2px;}</style></defs><rect class="cls-4" x="0" y="1" width="144" height="216"/><path class="cls-5" d="m76.47,79.34c-3.48,0-6.72,1-9.47,2.72.05,0,.1,0,.15,0,8.35,0,15.12,6.77,15.12,15.12,0,8.35-6.77,15.12-15.12,15.12-.05,0-.1,0-.15,0,2.74,1.72,5.99,2.72,9.47,2.72,9.85,0,17.84-7.99,17.84-17.84s-7.99-17.84-17.84-17.84Z"/><line class="cls-2" x1="138" y1="135.5" x2="7" y2="135.5"/><polyline class="cls-2" points="30.5 135.5 6.5 148.5 137.5 148.5 113.5 135.5"/><path class="cls-5" d="m61.86,90.02c-3.35,0-6.16,3.38-7.11,8.02-.95-4.63-3.76-8.02-7.11-8.02,3.35,0,6.16-3.38,7.11-8.02.95,4.63,3.76,8.02,7.11,8.02Z"/><path class="cls-1" d="m65.96,100.62c0-1.65-1.35-3.02-3.19-3.49,1.84-.47,3.19-1.84,3.19-3.49,0,1.65,1.35,3.02,3.19,3.49-1.84.47-3.19,1.84-3.19,3.49Z"/><path class="cls-5" d="m64.09,107.46c-1.98,0-3.63,2-4.2,4.73-.56-2.73-2.22-4.73-4.2-4.73,1.98,0,3.63-2,4.2-4.73.56,2.73,2.22,4.73,4.2,4.73Z"/><path class="cls-3" d="m112.59,208H13.02c-3.88,0-7.02-3.14-7.02-7.02V15.02c0-3.88,3.14-7.02,7.02-7.02h116.97c3.88,0,7.02,3.14,7.02,7.02v186.44c0,3.62-2.93,6.55-6.55,6.55h-17.86Z"/><line class="cls-2" x1="64.5" y1="135.5" x2="51.87" y2="208"/><line class="cls-2" x1="72" y1="136" x2="82.37" y2="208"/><line class="cls-2" x1="80.5" y1="135.5" x2="112.5" y2="208.5"/><line class="cls-2" x1="89.5" y1="135.5" x2="137" y2="201.45"/><line class="cls-2" x1="102.5" y1="135.5" x2="137.5" y2="163.5"/><line class="cls-2" x1="57.5" y1="135.5" x2="25.5" y2="208.5"/><line class="cls-2" x1="47.5" y1="135.5" x2="5.5" y2="195.5"/><line class="cls-2" x1="38.5" y1="135.5" x2="5.5" y2="162.5"/><line class="cls-2" x1="19.5" y1="135.5" x2="5.5" y2="139.5"/><line class="cls-2" x1="127.48" y1="135.56" x2="137.5" y2="137.5"/><line class="cls-2" x1="5.5" y1="137.97" x2="138" y2="137.5"/><line class="cls-2" x1="5.5" y1="142.5" x2="137.5" y2="141"/><line class="cls-2" x1="5.5" y1="157.42" x2="137" y2="156.49"/><line class="cls-2" x1="5.5" y1="172" x2="137.5" y2="170.64"/><line class="cls-2" x1="6" y1="187.54" x2="137" y2="186.78"/></svg>